<svg id="Layer_1" data-name="Layer 1" xmlns="http://www.w3.org/2000/svg" width="54" height="28" viewBox="0 0 54 28"><title>dark-mode</title><rect width="54" height="28" rx="14" style="fill:#121e2b"/><circle cx="14" cy="14" r="10" style="fill:#c3cfde"/><path d="M43.73,16.61A6,6,0,0,1,35.4,8.16c.28-.36-.25-.71-.8-.49a7.43,7.43,0,1,0,9.74,9.46C44.52,16.65,44.09,16.32,43.73,16.61Z" style="fill:#627589;fill-rule:evenodd"/><polygon points="45.44 10.6 44.33 8.02 43.21 10.6 40.64 11.71 43.21 12.83 44.33 15.41 45.44 12.83 48.01 11.71 45.44 10.6" style="fill:#627589;fill-rule:evenodd"/><polygon points="40.1 10.18 40.88 8.38 42.68 7.59 40.88 6.81 40.1 5 39.32 6.81 37.52 7.59 39.32 8.37 40.1 10.18" style="fill:#627589;fill-rule:evenodd"/></svg>