<svg id="Layer_1" data-name="Layer 1" xmlns="http://www.w3.org/2000/svg" width="54" height="28" viewBox="0 0 54 28"><title>light-mode</title><rect width="54" height="28" rx="14" style="fill:#e8f1fc"/><circle cx="40" cy="14" r="10" style="fill:#304967"/><path d="M11.57,9.15,9.34,6.93,7.93,8.34l2.22,2.23A6,6,0,0,1,11.57,9.15Z" style="fill:#7a8ca3;fill-rule:evenodd"/><path d="M10.15,17.43,7.93,19.66l1.41,1.41,2.23-2.22A6,6,0,0,1,10.15,17.43Z" style="fill:#7a8ca3;fill-rule:evenodd"/><path d="M19.85,10.57l2.22-2.23L20.66,6.93,18.43,9.15A6,6,0,0,1,19.85,10.57Z" style="fill:#7a8ca3;fill-rule:evenodd"/><path d="M16,8.15V5H14V8.15a5.05,5.05,0,0,1,2,0Z" style="fill:#7a8ca3;fill-rule:evenodd"/><path d="M9.05,14a5.56,5.56,0,0,1,.1-1H6v2H9.15A5.56,5.56,0,0,1,9.05,14Z" style="fill:#7a8ca3;fill-rule:evenodd"/><path d="M18.43,18.85l2.23,2.22,1.41-1.41-2.22-2.23A6,6,0,0,1,18.43,18.85Z" style="fill:#7a8ca3;fill-rule:evenodd"/><path d="M14,19.85V23h2V19.85a5.05,5.05,0,0,1-2,0Z" style="fill:#7a8ca3;fill-rule:evenodd"/><path d="M20.85,13a5.05,5.05,0,0,1,0,2H24V13Z" style="fill:#7a8ca3;fill-rule:evenodd"/><circle cx="15" cy="14" r="3.96" style="fill:#7a8ca3"/></svg>